<?xml version="1.0" encoding="UTF-8"?>
<!DOCTYPE svg PUBLIC "-//W3C//DTD SVG 1.1//EN" "http://www.w3.org/Graphics/SVG/1.1/DTD/svg11.dtd">
<svg xmlns="http://www.w3.org/2000/svg" xmlns:xlink="http://www.w3.org/1999/xlink" version="1.1" width="200px"
     height="348px" viewBox="0 0 200 348" style="background-color: rgb(255, 255, 255);">
    <rect fill="#ffffff" width="100%" height="100%" x="0" y="0"/>

    <rect x="0" y="0" width="200" height="50" fill="#4d4d4d" stroke="none" pointer-events="all"/>

    <rect x="0" y="100" width="200" height="5" fill="#4d4d4d" stroke="none" pointer-events="all"/>

    <rect x="0" y="105" width="200" height="5" fill="#e6e6e6" stroke="none" pointer-events="all"/>

    <rect x="0" y="50" width="200" height="50" fill="#ff9933" stroke="none" pointer-events="all"/>

    <rect x="0" y="110" width="200" height="238" fill="#ff9933" stroke="none"
          pointer-events="all"/>

    <ellipse cx="99" cy="218.75" rx="2.5" ry="2.5" fill="#4d9900" stroke="none"
             pointer-events="all"/>

    <rect x="66" y="97" width="66" height="3" fill="#ffffff" stroke="none" pointer-events="all"/>

    <ellipse cx="99" cy="107.5" rx="7.5" ry="7.5" fill="#dae8fc" stroke="#007fff"
             pointer-events="all"/>

    <ellipse cx="99" cy="236.25" rx="15" ry="15" fill="rgb(255, 255, 255)" stroke="rgb(0, 0, 0)"
             pointer-events="all"/>

    <ellipse cx="99" cy="183.75" rx="17.5" ry="17.5" fill="#b3b3b3" stroke="rgb(0, 0, 0)"
             pointer-events="all"/>

    <path d="M 49 97 L 149 187 L 49 277 Z" fill="none" stroke="rgb(0, 0, 0)" stroke-miterlimit="10"
          stroke-dasharray="3 3" transform="rotate(90,99,187)" pointer-events="all"/>

    <g>
        <path d="M 101.5 218.75 Q 124 218.75 136.5 208.75 Q 149 198.75 141.85 184.45" fill="none"
              stroke="rgb(0, 0, 0)" stroke-miterlimit="10" pointer-events="stroke"/>
        <path d="M 139.5 179.75 L 145.76 184.45 L 141.85 184.45 L 139.5 187.58 Z" fill="rgb(0, 0, 0)"
              stroke="rgb(0, 0, 0)" stroke-miterlimit="10" pointer-events="all"/>
    </g>
</svg>