<?xml version="1.0" encoding="UTF-8"?>
<!DOCTYPE svg PUBLIC "-//W3C//DTD SVG 1.1//EN" "http://www.w3.org/Graphics/SVG/1.1/DTD/svg11.dtd">
<svg xmlns="http://www.w3.org/2000/svg" xmlns:xlink="http://www.w3.org/1999/xlink" version="1.1" width="200px"
     height="348px" viewBox="0 0 200 348" style="background-color: rgb(255, 255, 255);">
    <rect x="0" y="0" width="200" height="50" fill="#4d4d4d" stroke="none"/>
    <rect x="0" y="100" width="200" height="5" fill="#4d4d4d" stroke="none"/>
    <rect x="0" y="105" width="200" height="5" fill="#e6e6e6" stroke="none"/>
    <rect x="0" y="50" width="200" height="50" fill="#ff9933" stroke="none"/>
    <rect x="0" y="110" width="200" height="238" fill="#ff9933" stroke="none"/>
    <ellipse cx="100" cy="220" rx="2.5" ry="2.5" fill="#4d9900" stroke="none"/>
    <rect x="67" y="97" width="66" height="3" fill="#ffffff" stroke="none"/>
    <ellipse cx="100" cy="107.5" rx="7.5" ry="7.5" fill="#dae8fc" stroke="#007fff"/>
    <ellipse cx="140" cy="250" rx="15" ry="15" fill="rgb(255, 255, 255)" stroke="rgb(0, 0, 0)"
             transform="rotate(325,140,250)"/>
    <ellipse cx="100" cy="185" rx="17.5" ry="17.5" fill="#b3b3b3" stroke="rgb(0, 0, 0)"
    />
    <ellipse cx="100" cy="250" rx="17.5" ry="17.5" fill="#b3b3b3" stroke="rgb(0, 0, 0)"
             stroke-dasharray="3 3"/>
    <path d="M 62 120 L 162 210 L 62 300 Z" fill="none" stroke="rgb(0, 0, 0)" stroke-miterlimit="10"
          stroke-dasharray="3 3" transform="rotate(55,112,210)"/>
    <g>
        <path d="M 100 250 Q 80 235 77.5 222.5 Q 75 210 80 202.5 Q 85 195 94.7 188.53" fill="none"
              stroke="rgb(0, 0, 0)" stroke-miterlimit="10" pointer-events="stroke"/>
        <path d="M 99.07 185.62 L 95.19 192.42 L 94.7 188.53 L 91.3 186.59 Z" fill="rgb(0, 0, 0)"
              stroke="rgb(0, 0, 0)" stroke-miterlimit="10"/>
    </g>
    <g>
        <path d="M 131.4 237.71 Q 127 231 121.5 226.5 Q 116 222 108.8 220.93" fill="none"
              stroke="rgb(0, 0, 0)" stroke-miterlimit="10" pointer-events="stroke"/>
        <path d="M 103.61 220.16 L 111.04 217.73 L 108.8 220.93 L 110.02 224.65 Z" fill="rgb(0, 0, 0)"
              stroke="rgb(0, 0, 0)" stroke-miterlimit="10"/>
    </g>
</svg>